<?xml version="1.0" standalone="no"?><!DOCTYPE svg PUBLIC "-//W3C//DTD SVG 1.1//EN" "http://www.w3.org/Graphics/SVG/1.1/DTD/svg11.dtd"><svg t="1498615699873" class="icon" style="" viewBox="0 0 1024 1024" version="1.1" xmlns="http://www.w3.org/2000/svg" p-id="2383" xmlns:xlink="http://www.w3.org/1999/xlink" width="200" height="200"><defs><style type="text/css"></style></defs><path d="M512 1024C229.216 1024 0 794.752 0 512 0 229.216 229.216 0 512 0s512 229.248 512 512C1024 794.752 794.752 1024 512 1024zM512 64C264.576 64 64 264.576 64 512c0 247.424 200.576 448 448 448s448-200.576 448-448C960 264.576 759.392 64 512 64zM457.92 690.272c-1.056 1.504-1.696 3.232-3.04 4.608-6.304 6.304-14.624 9.216-22.88 8.992-8.256 0.192-16.576-2.688-22.848-8.992-1.344-1.344-1.984-3.072-3.04-4.576l-156.992-156.96c-12.192-12.224-12.192-32 0-44.192 12.224-12.192 32-12.192 44.192 0l138.656 138.688 298.656-298.688c12.192-12.192 32-12.192 44.192 0 12.224 12.192 12.224 32 0 44.192L457.92 690.272z" p-id="2384" fill="#fff000"></path></svg>