<?xml version="1.0" encoding="utf-8"?>
<!-- Generator: Adobe Illustrator 21.0.0, SVG Export Plug-In . SVG Version: 6.00 Build 0)  -->
<svg version="1.1" id="图层_1" xmlns="http://www.w3.org/2000/svg" xmlns:xlink="http://www.w3.org/1999/xlink" x="0px" y="0px"
	 viewBox="0 0 167.2 249.5" style="enable-background:new 0 0 167.2 249.5;" xml:space="preserve">
<style type="text/css">
	.st0{fill-rule:evenodd;clip-rule:evenodd;fill:#FFD202;}
	.st1{fill:#FFD800;}
	.st2{fill-rule:evenodd;clip-rule:evenodd;fill:#FFBD43;}
	.st3{fill:#FFC854;}
	.st4{fill-rule:evenodd;clip-rule:evenodd;fill:#FFC854;}
	.st5{fill-rule:evenodd;clip-rule:evenodd;fill:none;stroke:#FFC854;stroke-width:2;stroke-miterlimit:10;}
	.st6{fill:none;stroke:#FFBD43;stroke-width:2.5;stroke-linecap:round;stroke-linejoin:round;stroke-miterlimit:10;}
	.st7{fill:none;stroke:#FFD202;stroke-width:8;stroke-linecap:round;stroke-linejoin:round;stroke-miterlimit:10;}
	.st8{fill:#FFFFFF;}
	.st9{fill:none;stroke:#FFFFFF;stroke-width:8;stroke-linecap:round;stroke-linejoin:round;stroke-miterlimit:10;}
</style>
<g>
	<path class="st1" d="M29.8,220.5c10.1,7.3,9.4,18.8,19.8,25.2c-0.5,0.8-1.3,2.5-1.4,3.4c-6.9-3.9-9.4-10.8-12.8-17
		c-2.4,7.8-6.4,13.4-12.6,17.1c-0.5-0.6-2-1.9-2.7-2.4c7-3.5,10.9-9.8,12.9-18.6c-1.4-2-3-3.6-5.1-5.1L29.8,220.5z M68.8,232.2v3.9
		h10.7v2.7H68.8v7.1H81v2.7H53.6v-2.7h12v-7.1H55v-2.7h10.6v-3.9h-6.7v-1.7c-1.5,0.8-3,1.5-4.6,2c-0.4-0.9-1.2-2-2-2.8
		c6-1.8,11.7-5.3,14.8-10l2.8,1.2c-0.3,0.4-0.5,0.8-0.8,1.2c3.1,3.1,8.5,6.2,13.3,7.6c-0.7,0.6-1.6,1.8-2,2.6
		c-1.6-0.6-3.2-1.3-4.8-2.2v2H68.8z M59.9,239.1c1.2,1.7,2.5,4,3,5.5l-2.6,1.1c-0.4-1.5-1.7-3.9-2.8-5.7L59.9,239.1z M74.1,229.4
		c-2.5-1.5-4.9-3.3-6.8-5.2c-1.9,2-4,3.7-6.4,5.2H74.1z M71.2,244.8c1.1-1.5,2.4-4,3.1-5.7l2.9,1.1c-1.2,2-2.6,4.2-3.7,5.6
		L71.2,244.8z M91.5,237.4v8.7c0,1.4-0.3,2.1-1.1,2.6c-0.8,0.5-1.9,0.6-3.6,0.6c-0.1-0.7-0.4-1.9-0.8-2.7c1,0,1.9,0,2.1,0
		c0.4,0,0.5-0.1,0.5-0.5v-7.6c-1.1,0.4-2.1,0.8-3,1.1l-0.7-2.8c1.1-0.3,2.3-0.7,3.7-1.2v-6.4h-3.4v-2.8h3.4v-6.2h2.8v6.2h2.8v2.8
		h-2.8v5.4l2.6-0.9l0.4,2.6L91.5,237.4z M107.3,241.6c1.9,2,4.7,3.7,7.4,4.6c-0.6,0.5-1.4,1.6-1.9,2.3c-2.5-1.1-5.1-3-7-5.2v6.1H103
		v-6c-2.3,2.3-5.3,4.2-8.4,5.3c-0.4-0.7-1.3-1.7-1.9-2.3c3.2-0.9,6.5-2.7,8.7-4.9h-6.5v-2.4h8.1V237h-7.5v-7.3h8.2v7.3h1.5v-7.3h8.4
		v7.3h-7.8v2.2h8.4v2.4H107.3z M101.2,231.8h-3.5v3.1h3.5V231.8z M110.4,228.4H98.5v-7.1h11.9V228.4z M107.7,223.5h-6.7v2.8h6.7
		V223.5z M107.5,234.9h3.6v-3.1h-3.6V234.9z M128,221.1c-0.9,2.2-2,4.5-3.2,6.7v21.6h-3v-16.9c-0.8,1.2-1.7,2.2-2.6,3.1
		c-0.3-0.7-1.2-2.4-1.7-3.1c3-3,5.9-7.7,7.6-12.4L128,221.1z M137.6,228.2v4.1h8.7v2.7h-8.7v4.3h9.2v2.8h-9.2v7.4h-3v-21.2h-1.8
		c-1.3,2.5-2.8,4.7-4.4,6.4c-0.5-0.5-1.6-1.6-2.3-2c2.8-2.9,5.4-7.6,6.9-12.2l2.8,0.8c-0.5,1.4-1.1,2.8-1.7,4.1h12.9v2.8H137.6z"/>
	<polyline class="st7" points="124.4,132.5 124.4,4 42.8,4 42.8,132.5 	"/>
	<ellipse class="st7" cx="83.6" cy="82.2" rx="26.5" ry="19.9"/>
	<path class="st7" d="M46.4,32.5C60,32.5,71,21.5,71,7.9"/>
	<path class="st7" d="M120.8,32.5c-13.6,0-24.5-11-24.5-24.5"/>
	<ellipse class="st7" cx="83.6" cy="42.3" rx="5.1" ry="5.1"/>
	<ellipse class="st7" cx="83.6" cy="122" rx="5.1" ry="5.1"/>
	<path class="st7" d="M42.2,112.1H29.5c-2.8,0-5.1,2.3-5.1,5.1v10.8c0,2.8,2.3,5.1,5.1,5.1h108.2c2.8,0,5.1-2.3,5.1-5.1v-10.8
		c0-2.8-2.3-5.1-5.1-5.1H125"/>
	<path class="st7" d="M125,85.5h31.6c3.5,0,6.6,2.9,6.6,6.6v64.1c0,3.6-2.9,6.6-6.6,6.6H10.6c-3.6,0-6.6-3-6.6-6.6V92.1
		c0-3.5,3-6.6,6.6-6.6h31.6"/>
</g>
</svg>
