<?xml version="1.0" encoding="utf-8"?>
<!-- Generator: Adobe Illustrator 21.0.0, SVG Export Plug-In . SVG Version: 6.00 Build 0)  -->
<svg version="1.1" id="图层_1" xmlns="http://www.w3.org/2000/svg" xmlns:xlink="http://www.w3.org/1999/xlink" x="0px" y="0px"
	 viewBox="0 0 61.1 106.6" style="enable-background:new 0 0 61.1 106.6;" xml:space="preserve">
<style type="text/css">
	.st0{fill-rule:evenodd;clip-rule:evenodd;fill:#FFD202;}
	.st1{fill:#FFD800;}
	.st2{fill-rule:evenodd;clip-rule:evenodd;fill:#FFBD43;}
	.st3{fill:#FFC854;}
	.st4{fill-rule:evenodd;clip-rule:evenodd;fill:#FFC854;}
	.st5{fill-rule:evenodd;clip-rule:evenodd;fill:none;stroke:#FFC854;stroke-width:2;stroke-miterlimit:10;}
	.st6{fill:none;stroke:#FFBD43;stroke-width:2.5;stroke-linecap:round;stroke-linejoin:round;stroke-miterlimit:10;}
</style>
<g>
	<path class="st3" d="M25.3,96.7c-1.6,2.2-3.9,4.1-6.7,5.5c3.2,0.8,7,1.3,11,1.5c-0.6,0.6-1.3,1.8-1.6,2.6
		c-4.7-0.4-9.2-1.2-12.8-2.6c-4.3,1.5-9.2,2.4-14.1,2.9c-0.2-0.8-0.7-2-1.1-2.6c4-0.3,8.1-0.9,11.7-1.9c-1.6-0.9-3-2-4.1-3.2
		c-1.2,1-2.5,1.9-3.7,2.6c-0.5-0.5-1.5-1.5-2.1-1.9c2.8-1.3,5.5-3.4,7.3-5.6H5.6v-9.6h20.1v9.6H11.9l0.4,0.1
		c-0.4,0.5-0.8,1.1-1.3,1.6h12l0.4-0.1L25.3,96.7z M7,82.5C5.6,84.4,4,86,2.3,87.2C2,86.7,1,85.4,0.4,84.9c2.7-1.8,5.3-4.7,6.8-7.7
		L9.9,78c-0.4,0.7-0.7,1.4-1.2,2.1h19.1v2.4H7z M8.6,88.1h14v-1.7h-14V88.1z M8.6,91.9h14V90h-14V91.9z M9.6,97.9
		c1.4,1.3,3.2,2.3,5.4,3.1c2.2-0.8,4.2-1.9,5.7-3.1H9.6z M43.3,87.2h7.4v2.7h-7.4v2.8h6.4v8.4c0,1.2-0.2,2-1,2.4s-2,0.5-3.7,0.4
		c-0.1-0.7-0.4-1.8-0.8-2.5c1.2,0,2.1,0,2.4,0c0.3,0,0.4-0.1,0.4-0.4v-5.7h-3.7v11.1h-2.8V95.4h-3.5v8.5h-2.7V92.8h6.1v-2.8h-7.5
		v-2.7h2.2c-0.6-0.4-1.8-0.8-2.5-1c1.4-2.1,2.5-5.3,3.1-8.3l2.8,0.6c-0.3,1.1-0.5,2.1-0.8,3.2h2.8v-4.3h2.8v4.3h6.1v2.7h-6.1V87.2z
		 M40.4,87.2v-2.9h-3.7c-0.4,1.1-0.9,2.1-1.4,2.9H40.4z M55.3,97.7h-2.8V80h2.8V97.7z M61.1,77.6v25.1c0,1.8-0.4,2.6-1.4,3.1
		c-1,0.5-2.8,0.6-5.2,0.6c-0.1-0.8-0.5-2.2-1-3c1.8,0.1,3.5,0.1,4.1,0c0.5,0,0.7-0.2,0.7-0.7V77.6H61.1z"/>
	<g>
		<path class="st4" d="M50,0H22.3c-2.5,0-4.6,2.1-4.6,4.6v4.6h2.8V4.6c0-1,0.8-1.8,1.8-1.8H50c1,0,1.8,0.8,1.8,1.8v41.5
			c0,1-0.8,1.8-1.8,1.8h-4.6v2.8H50c2.5,0,4.6-2.1,4.6-4.6V4.6C54.6,2.1,52.5,0,50,0"/>
		<path class="st4" d="M40.7,9.2H20.4h-2.8H13c-2.5,0-4.6,2.1-4.6,4.6v41.5c0,2.5,2.1,4.6,4.6,4.6h27.7c2.5,0,4.6-2.1,4.6-4.6v-4.6
			V48V13.8C45.3,11.3,43.3,9.2,40.7,9.2z M42.6,50.8v4.6c0,1-0.8,1.8-1.8,1.8H13c-1,0-1.8-0.8-1.8-1.8V13.8c0-1,0.8-1.8,1.8-1.8h4.6
			h2.8h20.3c1,0,1.8,0.8,1.8,1.8V48V50.8z"/>
		<path class="st4" d="M36.6,21.9H17.2c-0.8,0-1.4-0.6-1.4-1.4s0.6-1.4,1.4-1.4h19.4c0.8,0,1.4,0.6,1.4,1.4S37.3,21.9,36.6,21.9"/>
		<path class="st4" d="M36.6,29.3H17.2c-0.8,0-1.4-0.6-1.4-1.4s0.6-1.4,1.4-1.4h19.4c0.8,0,1.4,0.6,1.4,1.4S37.3,29.3,36.6,29.3"/>
		<path class="st4" d="M36.6,36.2H17.2c-0.8,0-1.4-0.6-1.4-1.4s0.6-1.4,1.4-1.4h19.4c0.8,0,1.4,0.6,1.4,1.4S37.3,36.2,36.6,36.2"/>
		<path class="st4" d="M36.6,43.6H17.2c-0.8,0-1.4-0.6-1.4-1.4c0-0.8,0.6-1.4,1.4-1.4h19.4c0.8,0,1.4,0.6,1.4,1.4
			C38,43,37.3,43.6,36.6,43.6"/>
		<path class="st4" d="M36.6,50.1H17.2c-0.8,0-1.4-0.6-1.4-1.4s0.6-1.4,1.4-1.4h19.4c0.8,0,1.4,0.6,1.4,1.4S37.3,50.1,36.6,50.1"/>
	</g>
</g>
</svg>
