<?xml version="1.0" encoding="utf-8"?>
<!-- Generator: Adobe Illustrator 21.0.0, SVG Export Plug-In . SVG Version: 6.00 Build 0)  -->
<svg version="1.1" id="图层_1" xmlns="http://www.w3.org/2000/svg" xmlns:xlink="http://www.w3.org/1999/xlink" x="0px" y="0px"
	 viewBox="0 0 152 95.5" style="enable-background:new 0 0 152 95.5;" xml:space="preserve">
<style type="text/css">
	.st0{fill-rule:evenodd;clip-rule:evenodd;fill:#FFD202;}
	.st1{fill:#FFD800;}
	.st2{fill-rule:evenodd;clip-rule:evenodd;fill:#FFBD43;}
	.st3{fill:#FFC854;}
	.st4{fill-rule:evenodd;clip-rule:evenodd;fill:#FFC854;}
	.st5{fill-rule:evenodd;clip-rule:evenodd;fill:none;stroke:#FFC854;stroke-width:2;stroke-miterlimit:10;}
	.st6{font-family:'Roboto-Medium';}
	.st7{font-size:24px;}
	.st8{fill:none;stroke:#FFBD43;stroke-width:2.5;stroke-linecap:round;stroke-linejoin:round;stroke-miterlimit:10;}
</style>
<g>
	<path class="st3" d="M60.4,71.5v5.4l0.5-0.6c3.6,1.8,8.7,4.6,11.1,6.6l-2.1,2.8c-2-1.8-6-4.3-9.5-6.2v16h-3.2V71.5H45.4v-3h28.3v3
		H60.4z M106.3,90H93.5v5.5h-3.1V90H77.8v-2.8h12.6v-2.7h-9.7v-13h5.5c-0.7-1.2-1.8-2.9-2.9-4.1l2.6-1.2c1.2,1.4,2.7,3.4,3.4,4.6
		l-1.4,0.7h7.4c1.1-1.5,2.3-3.7,3-5.3l3.3,1c-0.9,1.4-2,3-2.9,4.3h5v13H93.5v2.7h12.8V90z M83.6,76.9h6.8v-2.8h-6.8V76.9z
		 M90.4,82.1v-2.9h-6.8v2.9H90.4z M100.6,74.1h-7.1v2.8h7.1V74.1z M100.6,79.2h-7.1v2.9h7.1V79.2z"/>
	<path class="st5" d="M1,21C1,10,10,1,21,1h32C64,1,73,10,73,21c0,11-9,20-20,20H21C10,41,1,32,1,21z"/>
	<text transform="matrix(1 0 0 1 14.0625 29)" class="st3 st6 st7">BUY</text>
	<path class="st5" d="M79,21c0-11,9-20,20-20h32c11.1,0,20,9,20,20c0,11-9,20-20,20H99C88,41,79,32,79,21z"/>
	<text transform="matrix(1 0 0 1 88.2246 29)" class="st3 st6 st7">SELL</text>
</g>
</svg>
