<?xml version="1.0" encoding="utf-8"?>
<!-- Generator: Adobe Illustrator 21.0.0, SVG Export Plug-In . SVG Version: 6.00 Build 0)  -->
<svg version="1.1" id="图层_1" xmlns="http://www.w3.org/2000/svg" xmlns:xlink="http://www.w3.org/1999/xlink" x="0px" y="0px"
	 viewBox="0 0 61 95.8" style="enable-background:new 0 0 61 95.8;" xml:space="preserve">
<style type="text/css">
	.st0{fill-rule:evenodd;clip-rule:evenodd;fill:#FFD202;}
	.st1{fill:#FFD800;}
	.st2{fill-rule:evenodd;clip-rule:evenodd;fill:#FFBD43;}
	.st3{fill:#FFC854;}
	.st4{fill-rule:evenodd;clip-rule:evenodd;fill:#FFC854;}
	.st5{fill-rule:evenodd;clip-rule:evenodd;fill:none;stroke:#FFC854;stroke-width:2;stroke-miterlimit:10;}
	.st6{fill:none;stroke:#FFBD43;stroke-width:2.5;stroke-linecap:round;stroke-linejoin:round;stroke-miterlimit:10;}
</style>
<g>
	<path class="st3" d="M8.3,66.9h2.9v28.9H8.3v-8.5c-5.5,1.9-6.5,2.5-7.1,3c-0.2-0.7-0.7-2-1.2-2.7c0.5-0.3,1.1-0.9,1.1-2.2V69.9H4
		v15.8l4.3-1.3V66.9z M26.5,75.2c-0.9,4.9-2.1,9-4.1,12.3c1.8,2.4,4,4.4,6.6,5.7c-0.7,0.5-1.6,1.6-2,2.4c-2.4-1.4-4.5-3.3-6.2-5.5
		c-1.8,2.3-4,4.2-6.8,5.8c-0.3-0.6-1.3-1.9-2-2.5c3-1.4,5.3-3.4,7.1-5.9c-1.4-2.4-2.5-5.2-3.5-8.1c-0.6,1.2-1.3,2.3-2.1,3.2
		c-0.4-0.6-1.5-1.9-2.1-2.5c2.7-3.2,4.3-8.3,5.2-13.7l3,0.5c-0.3,1.9-0.7,3.7-1.2,5.5h10.4v2.8H26.5z M17.1,75.9
		c0.8,3.2,2,6.3,3.5,8.9c1.4-2.7,2.3-5.9,2.9-9.6h-6.1L17.1,75.9z M61,92.1v2.6H32.2v-2.6h3.9v-9.6h21.2v9.6H61z M60.5,75.1H32.7
		v-2.6h7.9c-0.7-1.5-1.9-3.5-3-5l2.5-1.1c1.3,1.6,2.7,3.7,3.3,5.2l-1.7,0.9h9.9l-1.8-0.6c1.1-1.5,2.4-3.8,3.1-5.5l3,0.9
		c-1.1,1.8-2.4,3.8-3.5,5.2h8V75.1z M43.7,77.5c-2.3,1.9-6.4,4.2-9.2,5.6c-0.4-0.7-1.2-1.8-1.8-2.4c2.9-1,6.9-3,9-4.6L43.7,77.5z
		 M38.7,92.1h3.4V85h-3.4V92.1z M44.9,85v7.1h3.4V85H44.9z M50.8,76.1c3.1,1.1,7.5,2.8,9.8,4.1L59,82.5c-2.2-1.2-6.5-3.1-9.7-4.3
		L50.8,76.1z M51,85v7.1h3.5V85H51z"/>
	<g>
		<line class="st6" x1="30.9" y1="12" x2="33.7" y2="5.2"/>
		<line class="st6" x1="28.2" y1="11.9" x2="27.7" y2="8.2"/>
		<line class="st6" x1="29.6" y1="21.6" x2="29.6" y2="24.7"/>
		<line class="st6" x1="29.6" y1="38" x2="29.6" y2="41.1"/>
		<path class="st6" d="M34.8,26.3c-1.4-0.5-2.7-0.9-3.9-1.1c-6.9-0.8-7.7,6.1-0.4,6.1c7.1,0,6.4,6.9-0.4,6.1c-1.3-0.1-2.5-0.6-3.9-1
			"/>
		<path class="st6" d="M34.2,11.6l0.1-0.1c0.8-1.6,3.4-4.4,4.1-6.7C40.9-2.7,27.6,4.2,20,2.6c-0.7-0.2,3.5,4.8,5.3,9"/>
		<path class="st6" d="M25.1,12.4h4.8h4.8c3.2,0,7.8,3.7,11.5,8.1c5.4,6.4,11.7,22,1.5,27.1c-3.6,1.8-9.2,1.4-17.3,1.4
			c-8.6,0-14.3,0.4-17.7-1.6c-9.4-5.2-3.9-21,1.4-27.4C17.6,15.9,21.9,12.4,25.1,12.4z"/>
	</g>
</g>
</svg>
