<?xml version="1.0" encoding="utf-8"?>
<!-- Generator: Adobe Illustrator 21.0.0, SVG Export Plug-In . SVG Version: 6.00 Build 0)  -->
<svg version="1.1" id="图层_1" xmlns="http://www.w3.org/2000/svg" xmlns:xlink="http://www.w3.org/1999/xlink" x="0px" y="0px"
	 viewBox="0 0 61.4 103.6" style="enable-background:new 0 0 61.4 103.6;" xml:space="preserve">
<style type="text/css">
	.st0{fill-rule:evenodd;clip-rule:evenodd;fill:#FFD202;}
	.st1{fill:#FFD800;}
	.st2{fill-rule:evenodd;clip-rule:evenodd;fill:#FFBD43;}
	.st3{fill:#FFC854;}
	.st4{fill-rule:evenodd;clip-rule:evenodd;fill:#FFC854;}
	.st5{fill-rule:evenodd;clip-rule:evenodd;fill:none;stroke:#FFC854;stroke-width:2;stroke-miterlimit:10;}
	.st6{fill:none;stroke:#FFBD43;stroke-width:2.5;stroke-linecap:round;stroke-linejoin:round;stroke-miterlimit:10;}
</style>
<g>
	<path class="st3" d="M19.2,80.6c2.7,2.7,6.6,5,10.4,6.2c-0.6,0.5-1.5,1.7-2,2.4c-4.2-1.6-8.5-4.6-11.5-8.1v5.8h-2.9V81
		c-2.8,3.6-7.1,6.7-11.4,8.4C1.5,88.7,0.6,87.6,0,87c3.7-1.2,7.6-3.7,10.2-6.4H0.7V78h12.5v-3.8h2.9V78h12.7v2.6H19.2z M1.2,99.9
		h27.4v2.7H1.2V99.9z M23.7,87.8v10.4H5.8V87.8H23.7z M20.6,89.8H8.7V92h11.9V89.8z M20.6,94H8.7v2.2h11.9V94z M43.9,86.3
		c-0.4,0.6-0.7,1.2-1.1,1.9h15.4v15.4h-3v-1.2H42.5v1.2h-2.8V92.4c-1.5,1.6-3.3,3.1-5.4,4.3c-0.4-0.7-1.2-1.8-1.8-2.3
		c3.5-2,6.1-4.8,8.1-8h-7.2V84h8.5c0.3-0.6,0.6-1.3,0.9-1.9h-7.1v-2.3h7.9c0.2-0.6,0.4-1.2,0.5-1.8c-2.8,0.1-5.6,0.2-8.3,0.2
		c0-0.7-0.3-1.7-0.6-2.3c7.7,0,17.2-0.5,22.4-1.4l1.8,2.1c-3.3,0.6-7.6,1-12,1.2c-0.2,0.7-0.4,1.3-0.6,2h12.9v2.3H45.9
		c-0.3,0.6-0.5,1.3-0.8,1.9h16.3v2.4H43.9z M55.3,90.5H42.5v1.8h12.8V90.5z M42.5,96.1h12.8v-1.8H42.5V96.1z M55.3,100.1v-2H42.5v2
		H55.3z"/>
	<g>
		<path class="st4" d="M39.2,36.8c0.8-0.8,2-0.8,2.8,0l15.6,15.6c0.8,0.8,0.8,2,0,2.8c-0.8,0.8-2,0.8-2.8,0L39.2,39.6
			C38.4,38.9,38.4,37.6,39.2,36.8z"/>
		<path class="st4" d="M25.4,0c-12.1,0-22,9.9-22,22c0,12.2,9.9,22,22,22s22-9.8,22-22C47.4,9.9,37.5,0,25.4,0 M25.4,41
			c-10.5,0-19-8.5-19-19s8.5-19,19-19s19,8.5,19,19S35.8,41,25.4,41"/>
	</g>
</g>
</svg>
