<?xml version="1.0" encoding="utf-8"?>
<!-- Generator: Adobe Illustrator 21.0.0, SVG Export Plug-In . SVG Version: 6.00 Build 0)  -->
<svg version="1.1" id="图层_1" xmlns="http://www.w3.org/2000/svg" xmlns:xlink="http://www.w3.org/1999/xlink" x="0px" y="0px"
	 viewBox="0 0 167.2 247.4" style="enable-background:new 0 0 167.2 247.4;" xml:space="preserve">
<style type="text/css">
	.st0{fill-rule:evenodd;clip-rule:evenodd;fill:#FFD202;}
	.st1{fill:#FFD800;}
	.st2{fill-rule:evenodd;clip-rule:evenodd;fill:#FFBD43;}
	.st3{fill:#FFC854;}
	.st4{fill-rule:evenodd;clip-rule:evenodd;fill:#FFC854;}
	.st5{fill-rule:evenodd;clip-rule:evenodd;fill:none;stroke:#FFC854;stroke-width:2;stroke-miterlimit:10;}
	.st6{fill:none;stroke:#FFBD43;stroke-width:2.5;stroke-linecap:round;stroke-linejoin:round;stroke-miterlimit:10;}
	.st7{fill:none;stroke:#FFD202;stroke-width:8;stroke-linecap:round;stroke-linejoin:round;stroke-miterlimit:10;}
	.st8{fill:#FFFFFF;}
	.st9{fill:none;stroke:#FFFFFF;stroke-width:8;stroke-linecap:round;stroke-linejoin:round;stroke-miterlimit:10;}
</style>
<g>
	<path class="st1" d="M48,233.9v13.5h-3.3v-1.8H22.5v-11.7h3.3v8.8h7.7V232H24v-11.2h3.1v8.3h6.4v-11.1h3.3v11.1h6.6v-8.3h3.3V232
		h-9.9v10.6h7.8v-8.8H48z M69.3,230.2v3.9h10.7v2.7H69.3v7.1h12.3v2.7H54.1v-2.7h12v-7.1H55.6V234h10.6v-3.9h-6.7v-1.7
		c-1.5,0.8-3,1.5-4.6,2c-0.4-0.9-1.2-2-2-2.8c6-1.8,11.7-5.3,14.8-10l2.8,1.2c-0.3,0.4-0.5,0.8-0.8,1.2c3.1,3.1,8.5,6.2,13.3,7.6
		c-0.7,0.6-1.6,1.8-2,2.6c-1.6-0.6-3.2-1.3-4.8-2.2v2H69.3z M60.5,237c1.2,1.7,2.5,4,3,5.5l-2.6,1.1c-0.4-1.5-1.7-3.9-2.8-5.7
		L60.5,237z M74.6,227.4c-2.5-1.5-4.9-3.3-6.8-5.2c-1.9,2-4,3.7-6.4,5.2H74.6z M71.8,242.8c1.1-1.5,2.4-4,3.1-5.7l2.9,1.1
		c-1.2,2-2.6,4.2-3.7,5.6L71.8,242.8z M92,235.4v8.7c0,1.4-0.3,2.1-1.1,2.6c-0.8,0.5-1.9,0.6-3.6,0.6c-0.1-0.7-0.4-1.9-0.8-2.7
		c1,0,1.9,0,2.1,0c0.4,0,0.5-0.1,0.5-0.5v-7.6c-1.1,0.4-2.1,0.8-3,1.1l-0.7-2.8c1.1-0.3,2.3-0.7,3.7-1.2V227h-3.4v-2.8h3.4V218H92
		v6.2h2.8v2.8H92v5.4l2.6-0.9l0.4,2.6L92,235.4z M107.9,239.6c1.9,2,4.7,3.7,7.4,4.6c-0.6,0.5-1.4,1.6-1.9,2.3c-2.5-1.1-5.1-3-7-5.2
		v6.1h-2.8v-6c-2.3,2.3-5.3,4.2-8.4,5.3c-0.4-0.7-1.3-1.7-1.9-2.3c3.2-0.9,6.5-2.7,8.7-4.9h-6.5v-2.4h8.1V235H96v-7.3h8.2v7.3h1.5
		v-7.3h8.4v7.3h-7.8v2.2h8.4v2.4H107.9z M101.8,229.8h-3.5v3.1h3.5V229.8z M111,226.4H99v-7.1H111V226.4z M108.3,221.5h-6.7v2.8h6.7
		V221.5z M108,232.8h3.6v-3.1H108V232.8z M128.5,219.1c-0.9,2.2-2,4.5-3.2,6.7v21.6h-3v-16.9c-0.8,1.2-1.7,2.2-2.6,3.1
		c-0.3-0.7-1.2-2.4-1.7-3.1c3-3,5.9-7.7,7.6-12.4L128.5,219.1z M138.2,226.1v4.1h8.7v2.7h-8.7v4.3h9.2v2.8h-9.2v7.4h-3v-21.2h-1.8
		c-1.3,2.5-2.8,4.7-4.4,6.4c-0.5-0.5-1.6-1.6-2.3-2c2.8-2.9,5.4-7.6,6.9-12.2l2.8,0.8c-0.5,1.4-1.1,2.8-1.7,4.1h12.9v2.8H138.2z"/>
	<polyline class="st7" points="42.8,34.3 42.8,162.8 124.4,162.8 124.4,34.3 	"/>
	<ellipse class="st7" cx="83.6" cy="84.6" rx="26.5" ry="19.9"/>
	<path class="st7" d="M120.8,134.3c-13.6,0-24.5,11-24.5,24.5"/>
	<path class="st7" d="M46.4,134.3c13.6,0,24.5,11,24.5,24.5"/>
	<ellipse class="st7" cx="83.6" cy="124.5" rx="5.1" ry="5.1"/>
	<ellipse class="st7" cx="83.6" cy="44.8" rx="5.1" ry="5.1"/>
	<path class="st7" d="M125,54.7h12.7c2.8,0,5.1-2.3,5.1-5.1V38.8c0-2.8-2.3-5.1-5.1-5.1H29.5c-2.8,0-5.1,2.3-5.1,5.1v10.8
		c0,2.8,2.3,5.1,5.1,5.1h12.7"/>
	<path class="st7" d="M42.2,81.3H10.6C7,81.3,4,78.3,4,74.7V10.6C4,7,6.9,4,10.6,4h146.1c3.6,0,6.6,3,6.6,6.6v64.1
		c0,3.5-3,6.6-6.6,6.6H125"/>
</g>
</svg>
