<?xml version="1.0" encoding="utf-8"?>
<!-- Generator: Adobe Illustrator 21.0.0, SVG Export Plug-In . SVG Version: 6.00 Build 0)  -->
<svg version="1.1" id="图层_1" xmlns="http://www.w3.org/2000/svg" xmlns:xlink="http://www.w3.org/1999/xlink" x="0px" y="0px"
	 viewBox="0 0 127.9 166.2" style="enable-background:new 0 0 127.9 166.2;" xml:space="preserve">
<style type="text/css">
	.st0{fill-rule:evenodd;clip-rule:evenodd;fill:#FFD202;}
	.st1{fill:#FFD800;}
	.st2{fill-rule:evenodd;clip-rule:evenodd;fill:#FFBD43;}
	.st3{font-family:'Roboto-Light';}
	.st4{font-size:75px;}
	.st5{letter-spacing:1;}
</style>
<g>
	<text transform="matrix(1 0 0 1 -4.882812e-04 64.16)"><tspan x="0" y="0" class="st1 st3 st4 st5">$</tspan><tspan x="43.5" y="0" class="st1 st3 st4 st5">5</tspan><tspan x="86.3" y="0" class="st1 st3 st4">0</tspan></text>
	<path class="st1" d="M18.7,110h3v22.7h-3V110z M22,103.2c1.6,1.8,3.7,4.2,4.6,5.8l-2.4,1.8c-0.9-1.6-2.9-4.2-4.5-6L22,103.2z
		 M45,129.1c0,1.8-0.4,2.6-1.6,3.1c-1.2,0.5-3.2,0.5-6.2,0.5c-0.1-0.8-0.6-2.1-1.1-2.8c2.1,0.1,4.4,0.1,5,0c0.6,0,0.8-0.2,0.8-0.8
		v-21.8H27.4v-2.8H45V129.1z M58,121.2c-0.4-1-1.1-2.6-1.8-4.1v15.6h-2.7v-13.6c-0.8,2.7-1.7,5.1-2.7,6.7c-0.3-0.8-0.9-2-1.3-2.8
		c1.6-2.4,3.2-6.9,4-10.8v-0.2h-3.4v-2.8h3.4v-6h2.7v6h2.7v2.8h-2.7v1.3c0.8,1.2,3,4.6,3.5,5.5L58,121.2z M78.9,129.3v2.6H58.1v-2.6
		h2V120h17.1v9.4H78.9z M62.5,117h-2.4v-11.9h2.4V117z M62.7,129.3h2.4v-7h-2.4V129.3z M66.9,118.5h-2.5v-14.8h2.5V118.5z
		 M71.9,110.3c-0.9,2.4-1.8,4.6-2.9,6.2c-0.4-0.5-1.4-1.7-2.1-2.2c1.8-2.7,3.2-6.8,4-10.7l2.8,0.6c-0.3,1.2-0.6,2.3-1,3.5h6v2.5
		H71.9z M67.4,122.3v7h2.4v-7H67.4z M73,112.2c1.8,1.3,3.8,3.1,4.8,4.3l-1.9,1.6c-1-1.3-3-3.2-4.8-4.5L73,112.2z M72.1,122.3v7h2.5
		v-7H72.1z M91.9,104.3c-0.8,2.2-1.8,4.4-2.9,6.6v21.8h-2.8v-17c-0.9,1.3-1.9,2.6-2.8,3.6c-0.3-0.7-1.1-2.3-1.6-3
		c2.9-3.1,5.7-8,7.4-12.8L91.9,104.3z M105.2,118.1c0.7,6.3,2,10.7,3.4,10.8c0.5,0,0.9-1.5,1.1-4.3c0.4,0.6,1.6,1.3,2.1,1.6
		c-0.6,5-2,6.3-3.2,6.3c-3.4-0.1-5.3-5.8-6.2-14.3h-6.8v10.8l4-1c-0.1,0.7,0,1.9,0.1,2.5c-5.6,1.5-6.5,1.9-7.1,2.3
		c-0.1-0.7-0.6-1.9-1-2.5c0.5-0.3,1.3-0.7,1.3-2v-21.7h0l0,0c5.4-0.7,11.4-2,14.9-3.4l2.4,2.4c-1.7,0.6-3.6,1.1-5.7,1.6
		c0.1,2.8,0.2,5.5,0.4,8h6.2v2.8H105.2z M102.1,115.3c-0.2-2.3-0.4-4.8-0.4-7.4c-2,0.4-4,0.7-6,1v6.3H102.1z M101.3,125.1
		c1.1,2,2.3,4.7,2.8,6.3l-2.2,0.8c-0.5-1.7-1.7-4.4-2.7-6.5L101.3,125.1z"/>
	<rect x="32.6" y="158.2" class="st2" width="64" height="8"/>
</g>
</svg>
