<?xml version="1.0" encoding="utf-8"?>
<!-- Generator: Adobe Illustrator 21.0.0, SVG Export Plug-In . SVG Version: 6.00 Build 0)  -->
<svg version="1.1" id="图层_1" xmlns="http://www.w3.org/2000/svg" xmlns:xlink="http://www.w3.org/1999/xlink" x="0px" y="0px"
	 viewBox="0 0 94.5 168" style="enable-background:new 0 0 94.5 168;" xml:space="preserve">
<style type="text/css">
	.st0{fill-rule:evenodd;clip-rule:evenodd;fill:#FFD202;}
	.st1{fill:#FFD800;}
	.st2{fill-rule:evenodd;clip-rule:evenodd;fill:#FFBD43;}
</style>
<g>
	<g>
		<path class="st0" d="M47.2,0c-22.1,0-40,17.9-40,40c0,22.1,17.9,40,40,40c22.1,0,40-17.9,40-40C87.2,17.9,69.2,0,47.2,0
			 M48.8,76.7v-3.4h-3.2v3.4c-18.9-0.8-34.2-16-35.1-34.9H14v-3.2h-3.6C11.2,19.5,26.5,4.1,45.6,3.3V7h3.2V3.3
			c19,0.8,34.4,16.2,35.1,35.3h-3.6v3.2h3.6C83,60.7,67.7,75.9,48.8,76.7"/>
		<path class="st0" d="M64.3,15.8L50,35c-0.8-0.5-1.8-0.7-2.8-0.7c-1.4,0-2.6,0.5-3.6,1.3l-10.7-8.1l-2,2.6l10.8,8.2
			c-0.2,0.6-0.3,1.2-0.3,1.8c0,3.2,2.6,5.8,5.8,5.8c3.2,0,5.8-2.6,5.8-5.8c0-1-0.2-1.9-0.7-2.7l14.6-19.5L64.3,15.8z M47.2,42.5
			c-1.4,0-2.5-1.1-2.5-2.5c0-1.4,1.1-2.5,2.5-2.5c1.4,0,2.5,1.1,2.5,2.5C49.7,41.4,48.6,42.5,47.2,42.5z"/>
	</g>
	<path class="st1" d="M21.9,119.3c-1.3,3.1-3,5.7-5.2,7.8c3.2,2.2,7.2,3.8,12.2,4.6c-0.6,0.6-1.4,1.8-1.8,2.7
		c-5.2-1-9.3-2.7-12.6-5.3c-3.5,2.6-7.7,4.3-12.6,5.5c-0.3-0.7-1.2-2-1.8-2.7c4.9-1,9-2.5,12.2-4.8c-2-2.1-3.6-4.7-4.9-7.7l2.7-0.8
		c1,2.6,2.5,4.8,4.5,6.7c1.9-1.9,3.4-4.1,4.4-6.8L21.9,119.3z M11.2,114.1c-2.2,2.7-5.6,5.6-8.4,7.4c-0.5-0.6-1.7-1.7-2.3-2.2
		c2.8-1.5,6-3.9,7.8-6.3L11.2,114.1z M28.1,112.3H0.5v-2.9h12.9c-0.5-1.1-1.2-2.5-1.9-3.6l2.8-1c0.9,1.3,1.9,3.1,2.3,4.2l-0.9,0.4
		h12.4V112.3z M20.1,112.9c2.8,1.9,6.5,4.8,8.2,6.8l-2.5,2c-1.6-2-5.1-5-8-7L20.1,112.9z M59.8,121.4c0,0-0.1,0.8-0.1,1.2
		c-0.6,7-1.3,9.9-2.3,10.9c-0.7,0.7-1.4,0.9-2.3,1c-0.9,0.1-2.4,0.1-3.9,0c-0.1-0.7-0.4-1.8-0.8-2.5c1.5,0.2,2.8,0.2,3.4,0.2
		c0.5,0,0.8-0.1,1.2-0.4c0.6-0.6,1.2-2.8,1.7-7.7h-3.4c-1.7,4.4-4.4,8.2-7.4,10.7c-0.5-0.5-1.7-1.4-2.3-1.9c2.8-2,5.2-5.2,6.7-8.9
		h-3.6c-2.4,4.1-6,7.6-9.6,9.9c-0.5-0.6-1.6-1.6-2.2-2.1c3.3-1.8,6.4-4.5,8.4-7.7h-3.7c-1.6,1.6-3.4,3-5.1,4.1
		c-0.5-0.6-1.6-1.6-2.3-2.1c3-1.7,6-4.1,7.9-6.9h-3.2v-12.4h20.6V119H43.5c-0.5,0.8-1.1,1.6-1.7,2.4H59.8z M39.7,111.6h14.7V109
		H39.7V111.6z M39.7,116.6h14.7v-2.7H39.7V116.6z M64.4,119.6c0.8-2.1,1.4-5.7,1.6-8.2l2.2,0.3c-0.2,2.6-0.7,6.3-1.5,8.7L64.4,119.6
		z M73.7,117.2c-0.3-1.4-1.2-3.6-2-5.4v22.7h-2.9v-29.3h2.9v5.9l1.8-0.7c1,1.9,2.1,4.4,2.4,5.9L73.7,117.2z M85.8,122.3
		c1.7,4.4,4.5,7.9,8.7,9.5c-0.7,0.6-1.7,1.9-2.1,2.8c-4.3-1.9-7-5.5-8.8-10.2c-1.2,3.8-3.6,7.5-8.5,10.2c-0.4-0.6-1.4-1.8-2.1-2.3
		c5.3-2.6,7.4-6.3,8.2-10h-7v-2.8h7.4c0.1-1.2,0.1-2.4,0.1-3.6v-3.1h-5.9v-2.8h5.9v-5h3v5h7v9.4h2.4v2.8H85.8z M84.7,116
		c0,1.2,0,2.3-0.2,3.6h4.2v-6.7h-4.1V116z"/>
	<rect x="15.2" y="160" class="st2" width="64" height="8"/>
</g>
</svg>
