<?xml version="1.0" encoding="utf-8"?>
<!-- Generator: Adobe Illustrator 21.0.0, SVG Export Plug-In . SVG Version: 6.00 Build 0)  -->
<svg version="1.1" id="图层_1" xmlns="http://www.w3.org/2000/svg" xmlns:xlink="http://www.w3.org/1999/xlink" x="0px" y="0px"
	 viewBox="0 0 94.1 168" style="enable-background:new 0 0 94.1 168;" xml:space="preserve">
<style type="text/css">
	.st0{fill-rule:evenodd;clip-rule:evenodd;fill:#FFD202;}
	.st1{fill:#FFD800;}
	.st2{fill-rule:evenodd;clip-rule:evenodd;fill:#FFBD43;}
</style>
<g>
	<g>
		<path class="st0" d="M46.9,0C24.9,0,7.1,17.8,7.1,39.8c0,22,17.8,39.8,39.8,39.8c22,0,39.8-17.8,39.8-39.8
			C86.7,17.8,68.9,0,46.9,0 M46.9,76.4c-20.2,0-36.6-16.4-36.6-36.6c0-20.2,16.4-36.6,36.6-36.6s36.6,16.4,36.6,36.6
			C83.5,59.9,67.1,76.4,46.9,76.4"/>
		<path class="st0" d="M31.7,27c-3.5,0-6.4,2.9-6.4,6.4c0,3.5,2.9,6.4,6.4,6.4c3.5,0,6.4-2.9,6.4-6.4C38,29.9,35.2,27,31.7,27
			 M31.7,36.6c-1.8,0-3.2-1.4-3.2-3.2c0-1.8,1.4-3.2,3.2-3.2c1.8,0,3.2,1.4,3.2,3.2C34.9,35.2,33.4,36.6,31.7,36.6"/>
		<path class="st0" d="M63.1,27c-3.5,0-6.4,2.9-6.4,6.4c0,3.5,2.9,6.4,6.4,6.4c3.5,0,6.4-2.9,6.4-6.4C69.5,29.9,66.6,27,63.1,27
			 M63.1,36.6c-1.8,0-3.2-1.4-3.2-3.2c0-1.8,1.4-3.2,3.2-3.2c1.8,0,3.2,1.4,3.2,3.2C66.3,35.2,64.9,36.6,63.1,36.6"/>
		<path class="st0" d="M65.4,58.3c0.3-0.3,0.4-0.7,0.4-1.1c0-0.9-0.7-1.6-1.6-1.6c-0.4,0-0.8,0.2-1.1,0.5l0,0
			c-4.1,4.2-9.9,6.8-16.2,6.8c-6.1,0-11.7-2.4-15.8-6.4l0,0c-0.3-0.3-0.7-0.4-1.1-0.4c-0.9,0-1.6,0.7-1.6,1.6c0,0.4,0.2,0.8,0.5,1.1
			l0,0c4.7,4.5,11,7.3,18,7.3C54.1,66.1,60.7,63.1,65.4,58.3L65.4,58.3z"/>
	</g>
	<path class="st1" d="M15.8,112.6v4H26v11c0,1.6-0.3,2.5-1.5,2.9c-1.2,0.5-3,0.5-5.6,0.5c-0.1-0.8-0.6-2.1-1.1-2.9
		c1.9,0.1,3.8,0.1,4.4,0.1c0.5,0,0.7-0.2,0.7-0.6v-8h-7.2v15h-3.1v-15H5.9V131h-3v-14.5h9.8v-4H0v-2.9h13.2
		c-0.5-1.2-1.2-2.7-1.9-3.9l2.9-0.9c0.9,1.5,2,3.5,2.4,4.8h12v2.9H15.8z M61,115.3c0,0,0,0.9-0.1,1.3c-0.7,11-1.3,15-2.4,16.4
		c-0.7,0.8-1.4,1.2-2.3,1.2c-0.8,0.1-2.2,0.1-3.6,0.1c-0.1-0.8-0.4-2-0.8-2.8c1.2,0.1,2.4,0.1,3,0.1c0.5,0,0.8-0.1,1.1-0.5
		c0.8-0.9,1.4-4.3,2-13.1h-1.7c-2.1,7.3-5.7,12.8-10.7,16.4c-0.5-0.4-1.6-1.2-2.3-1.6c5.1-3.1,8.4-8.2,10.3-14.7h-2.3
		c-1.4,4.1-3.9,7.4-6.8,9.6c-0.4-0.4-1.1-0.9-1.7-1.4l0.1,0.4c-3.4,1.4-7,2.8-9.8,3.9l-1-3c1.2-0.4,2.6-0.9,4.1-1.4v-10.5h-3.7v-2.8
		h3.7v-7.3H39v7.3h3.3v2.8H39v9.5c1.1-0.4,2.1-0.8,3.2-1.2l0.4,1.8c2.6-1.8,4.6-4.5,5.8-7.6H47c-1.4,0-2.5,0.2-2.8,0.4
		c-0.2-0.7-0.8-2.1-1.2-2.8c0.9-0.1,2-0.8,3.3-1.6c1-0.6,3.6-2.4,6.1-4.6h-9.4v-2.8h12.6l0.7-0.3l2.2,1.7c-3.1,2.8-6.3,5.2-9.2,7.2
		H61z M77.3,111.9c-0.4,5.7-1.6,10.2-3.2,13.8c1.5,1.3,2.8,2.6,3.6,3.7l-2,2.5c-0.8-1-1.9-2.2-3.1-3.5c-1.7,2.6-3.9,4.6-6.5,6.1
		c-0.4-0.7-1.2-1.9-1.9-2.4c2.4-1.2,4.5-3.1,6.1-5.7c-1.6-1.4-3.4-2.8-5.1-4c0.7-2.1,1.5-5.1,2.1-8.2h-2.6v-2.8H68
		c0.4-2.2,0.7-4.4,0.9-6.4l3,0.2c-0.3,2-0.6,4-1,6.2H75l0.5-0.1L77.3,111.9z M70.3,114.3c-0.5,2.5-1.1,4.9-1.7,7
		c1,0.8,2.1,1.6,3.2,2.4c1.2-2.7,2-5.8,2.5-9.4H70.3z M94.1,121.3h-6.8v9.9c0,1.6-0.4,2.4-1.5,2.9c-1.1,0.4-2.8,0.5-5.2,0.5
		c-0.2-0.8-0.6-2-1-2.8c1.8,0.1,3.6,0.1,4,0c0.5,0,0.7-0.1,0.7-0.6v-9.9h-7.1v-2.8h7.1V115c1.5-1.3,3.1-3.2,4.3-5h-10v-2.7h12
		l0.7-0.2l2,1.4c-1.5,2.3-3.7,5-6,7v2.8h6.8V121.3z"/>
	<rect x="15.1" y="160" class="st2" width="64" height="8"/>
</g>
</svg>
