<?xml version="1.0" encoding="utf-8"?>
<!-- Generator: Adobe Illustrator 21.0.0, SVG Export Plug-In . SVG Version: 6.00 Build 0)  -->
<svg version="1.1" id="图层_1" xmlns="http://www.w3.org/2000/svg" xmlns:xlink="http://www.w3.org/1999/xlink" x="0px" y="0px"
	 viewBox="0 0 93.4 168" style="enable-background:new 0 0 93.4 168;" xml:space="preserve">
<style type="text/css">
	.st0{fill-rule:evenodd;clip-rule:evenodd;fill:#FFD202;}
	.st1{fill:#FFD800;}
	.st2{fill-rule:evenodd;clip-rule:evenodd;fill:#FFBD43;}
</style>
<g>
	<g>
		<path class="st0" d="M43.8,64c-0.1,0-0.2,0-0.3,0c-6-0.2-10.8-5.2-10.8-11.3V26.4c0-2.5,2-4.5,4.5-4.5c0.5,0,1,0.1,1.5,0.3v-0.7
			c0-2.5,2-4.5,4.5-4.5c0.5,0,1,0.1,1.5,0.3c0.1-2.4,2.1-4.3,4.5-4.3c2.4,0,4.3,1.9,4.5,4.3c0.5-0.2,1-0.3,1.5-0.3
			c2.5,0,4.5,2,4.5,4.5v8c0.5-0.2,1-0.3,1.5-0.3c2.5,0,4.5,2,4.5,4.5v17.1l0,0.1c-0.1,6.3-5,11.9-11.2,12.9
			c-0.2,0.1-0.4,0.1-0.6,0.1l-1.1,0c-0.1,0-0.2,0-0.4,0H43.8z M52,60.9c0.1,0,0.1,0,0.2,0l0.8,0c0.1,0,0.2-0.1,0.3-0.1
			c5.1-0.6,9-5,9.1-10.2l0-0.1l0,0l0-16.9c0-0.8-0.7-1.5-1.5-1.5c-0.8,0-1.5,0.7-1.5,1.5v17c0,0.8-0.7,1.5-1.5,1.5
			c-0.8,0-1.5-0.7-1.5-1.5V21.4c0-0.8-0.7-1.5-1.5-1.5c-0.8,0-1.5,0.7-1.5,1.5v17c0,0.8-0.7,1.5-1.5,1.5c-0.8,0-1.5-0.7-1.5-1.5v-21
			c0-0.8-0.7-1.5-1.5-1.5c-0.8,0-1.5,0.7-1.5,1.5v21c0,0.8-0.7,1.5-1.5,1.5c-0.8,0-1.5-0.7-1.5-1.5v-17c0-0.8-0.7-1.5-1.5-1.5
			c-0.8,0-1.5,0.7-1.5,1.5v17c0,0.8-0.7,1.5-1.5,1.5c-0.8,0-1.5-0.7-1.5-1.5v-12c0-0.8-0.7-1.5-1.5-1.5c-0.8,0-1.5,0.7-1.5,1.5v26.3
			c0,4.5,3.7,8.2,8.1,8.2c0.1,0,0.2,0,0.3,0H52z"/>
		<path class="st0" d="M48,80C26.2,80,8.5,62.1,8.5,40S26.2,0,48,0c21.8,0,39.5,17.9,39.5,40S69.8,80,48,80 M48,3
			C27.9,3,11.5,19.6,11.5,40S27.9,77,48,77c20.1,0,36.5-16.6,36.5-37S68.1,3,48,3"/>
		<path class="st0" d="M20.4,67.9L20.4,67.9c-0.6-0.6-0.6-1.6,0-2.2l52.9-53.6c0.6-0.6,1.6-0.6,2.2,0s0.6,1.6,0,2.2L22.6,67.9
			C22,68.5,21,68.5,20.4,67.9"/>
	</g>
	<path class="st1" d="M24.7,130.8c1.4,0,1.7-0.7,1.9-4.9c0.7,0.5,2,1.1,2.8,1.2c-0.4,5.2-1.2,6.6-4.5,6.6h-5.4c-3.6,0-4.5-1-4.5-4.3
		v-10.1h-0.3c-1.3,6.1-4.5,11.9-12.6,15.2c-0.4-0.8-1.2-1.9-2-2.5c7.3-2.8,10.3-7.5,11.6-12.7H0.5v-2.9h11.7
		c0.3-2.1,0.4-4.3,0.5-6.3H2.4v-2.9h24.9v2.9H15.7c-0.1,2.1-0.2,4.2-0.5,6.3h13.9v2.9H18v10.1c0,1.2,0.3,1.4,1.8,1.4H24.7z
		 M44.1,107.5c-0.9,2.6-2,5.8-3,8.2c2.1,2.6,2.6,4.9,2.6,6.8c0,1.9-0.4,3.2-1.3,3.9c-0.5,0.4-1,0.5-1.7,0.6
		c-0.6,0.1-1.4,0.1-2.1,0.1c0-0.7-0.3-1.9-0.7-2.6c0.7,0,1.2,0.1,1.7,0c0.4,0,0.7-0.1,0.9-0.3c0.4-0.4,0.6-1.2,0.6-2.1
		c0-1.6-0.5-3.7-2.6-6.1c0.8-2.1,1.6-4.8,2.2-6.9h-3.9v25.3h-2.6v-28h7.6l0.4-0.1L44.1,107.5z M61.4,123.5c-1.5,1.2-3.5,2.5-5.1,3.5
		c1.5,2.1,3.4,3.8,5.7,4.8c-0.6,0.6-1.6,1.8-2,2.5c-4.9-2.5-7.7-7.3-9.2-13.6h-2.6v9.8l5.1-1.2c0,0.8,0,2,0.2,2.7
		c-6.4,1.7-7.5,2.1-8.2,2.5c-0.2-0.7-0.9-1.9-1.3-2.4c0.5-0.3,1.3-1.1,1.3-2.5v-23.2h14.1v14.2h-6.1c0.4,1.5,1,2.9,1.6,4.2
		c1.5-1.1,3.3-2.4,4.4-3.5L61.4,123.5z M48.2,109.1v3.2h8.4v-3.2H48.2z M48.2,118.1h8.4v-3.3h-8.4V118.1z M75.6,115.2H83v2.7h-7.4
		v2.8H82v8.4c0,1.2-0.2,2-1,2.4c-0.8,0.4-2,0.5-3.7,0.4c-0.1-0.7-0.4-1.8-0.8-2.5c1.2,0,2.1,0,2.4,0c0.3,0,0.4-0.1,0.4-0.4v-5.7
		h-3.7v11.1h-2.8v-11.1h-3.5v8.5h-2.7v-11.2h6.1v-2.8h-7.5v-2.7h2.2c-0.6-0.4-1.8-0.8-2.5-1c1.4-2.1,2.5-5.3,3.1-8.3l2.8,0.6
		c-0.3,1.1-0.5,2.1-0.8,3.2h2.8v-4.3h2.8v4.3h6.1v2.7h-6.1V115.2z M72.8,115.2v-2.9H69c-0.4,1.1-0.9,2.1-1.4,2.9H72.8z M87.7,125.7
		h-2.8V108h2.8V125.7z M93.4,105.6v25.1c0,1.8-0.4,2.6-1.4,3.1c-1,0.5-2.8,0.6-5.2,0.6c-0.1-0.8-0.5-2.2-1-3c1.8,0.1,3.5,0.1,4.1,0
		c0.5,0,0.7-0.2,0.7-0.7v-25.2H93.4z"/>
	<rect x="15.5" y="160" class="st2" width="64" height="8"/>
</g>
</svg>
